<svg xmlns="http://www.w3.org/2000/svg" xmlns:svg="http://www.w3.org/2000/svg" id="svg2" width="990" height="765" version="1.1" xml:space="preserve"><metadata id="metadata8"/><g id="g10" transform="matrix(1.25,0,0,-1.25,0,765)"><g id="g12" transform="scale(0.1,0.1)" style="fill:#67c32f;fill-opacity:1"><path id="path14" d="m 3863.54,3423.46 c 0,0 0,475.58 475.59,475.58 l 1426.73,0 c 0,0 0,-475.58 -475.58,-475.58 l -1426.74,0" style="fill:#67c32f;fill-opacity:1;fill-rule:nonzero;stroke:none"/><path id="path16" d="m 3863.54,2815.78 c 0,0 0,475.58 475.59,475.58 l 713.36,0 c 0,0 0,-475.58 -475.59,-475.58 l -713.36,0" style="fill:#67c32f;fill-opacity:1;fill-rule:nonzero;stroke:none"/><path id="path18" d="m 3863.54,2208.1 c 0,0 0,475.57 475.59,475.57 l 237.77,0 c 0,0 0,-475.57 -475.56,-475.57 l -237.8,0" style="fill:#67c32f;fill-opacity:1;fill-rule:nonzero;stroke:none"/><path id="path20" d="m 3703.88,2579.23 0,-379.4 -1529.38,0 985.22,1343.92 -845.78,0 0,379.42 1595.48,0 -980.67,-1343.94 775.13,0" style="fill:#67c32f;fill-opacity:1;fill-rule:nonzero;stroke:none"/></g></g><g id="layer2" style="display:inline"><text id="text3009-0" x="611.186" y="515.094" xml:space="preserve" style="font-size:47.40753937px;font-style:normal;font-weight:400;line-height:125%;letter-spacing:0;word-spacing:0;fill:#67c32f;fill-opacity:1;stroke:none;font-family:Sans"><tspan id="tspan3011-2" x="611.186" y="515.094" style="font-size:106.66696167px;font-style:italic;font-variant:normal;font-weight:700;font-stretch:normal;fill:#67c32f;fill-opacity:1;font-family:Poppl-Laudatio;-inkscape-font-specification:Poppl-Laudatio Bold Italic">2</tspan></text></g></svg>